<svg width="76" height="76" viewBox="0 0 76 76" fill="none" xmlns="http://www.w3.org/2000/svg">
<path d="M28.5 31.6667L38.8173 39.4048C40.1426 40.3985 42.0096 40.2031 43.1005 38.9567L63.3333 15.8334" stroke="#FF0000" stroke-width="5" stroke-linecap="round"/>
<path d="M66.5 38C66.5 43.9549 64.6348 49.7601 61.1661 54.6006C57.6976 59.4412 52.7997 63.0734 47.1612 64.9876C41.5223 66.9015 35.4255 67.0013 29.7269 65.2729C24.0284 63.5442 19.0145 60.0739 15.3894 55.3499C11.7643 50.6255 9.71011 44.8843 9.51527 38.9326C9.32042 32.9808 10.9948 27.1176 14.3031 22.1663C17.6115 17.215 22.3877 13.4243 27.9609 11.3267C33.5341 9.22907 39.6245 8.92988 45.3764 10.4711" stroke="#FF0000" stroke-width="5" stroke-linecap="round"/>
</svg>
