<svg width="25" height="25" viewBox="0 0 25 25" fill="none" xmlns="http://www.w3.org/2000/svg">
<path d="M22.3772 0H3.14369C2.44809 0 1.78098 0.276325 1.28912 0.768187C0.79726 1.26005 0.520935 1.92716 0.520935 2.62275L0.520935 21.8563C0.520935 22.5519 0.79726 23.219 1.28912 23.7109C1.78098 24.2027 2.44809 24.479 3.14369 24.479H10.6431V16.1567H7.20076V12.2395H10.6431V9.25395C10.6431 5.85803 12.6648 3.98222 15.7613 3.98222C17.2443 3.98222 18.795 4.24668 18.795 4.24668V7.57976H17.0864C15.4029 7.57976 14.8778 8.62449 14.8778 9.696V12.2395H18.636L18.0349 16.1567H14.8778V24.479H22.3772C23.0728 24.479 23.7399 24.2027 24.2318 23.7109C24.7237 23.219 25 22.5519 25 21.8563V2.62275C25 1.92716 24.7237 1.26005 24.2318 0.768187C23.7399 0.276325 23.0728 0 22.3772 0V0Z" fill="white"/>
</svg>
