<svg width="34" height="36" viewBox="0 0 34 36" fill="none" xmlns="http://www.w3.org/2000/svg">
<path d="M22.1523 10.6407C22.1107 10.5159 22.0311 10.4072 21.9246 10.3299C21.8182 10.2525 21.6902 10.2104 21.5586 10.2095H18.4523L17.4961 7.25949C17.455 7.13445 17.3755 7.02558 17.2688 6.94839C17.1622 6.87121 17.034 6.82965 16.9023 6.82965C16.7707 6.82965 16.6424 6.87121 16.5358 6.94839C16.4292 7.02558 16.3497 7.13445 16.3086 7.25949L15.3523 10.2095H12.2461C12.1145 10.2104 11.9865 10.2525 11.88 10.3299C11.7736 10.4072 11.6939 10.5159 11.6523 10.6407C11.6108 10.7668 11.6108 10.9029 11.6525 11.0289C11.6941 11.1549 11.7751 11.2642 11.8836 11.3407L14.3898 13.1657L13.4336 16.1157C13.3923 16.2412 13.3918 16.3766 13.4323 16.5023C13.4727 16.6281 13.5519 16.7378 13.6586 16.8157C13.7664 16.892 13.8953 16.9329 14.0273 16.9329C14.1594 16.9329 14.2882 16.892 14.3961 16.8157L16.9023 14.9907L19.4086 16.8157C19.5174 16.8903 19.6455 16.9316 19.7773 16.9345C19.9095 16.9335 20.0382 16.892 20.1461 16.8157C20.2528 16.7378 20.332 16.6281 20.3724 16.5023C20.4128 16.3766 20.4124 16.2412 20.3711 16.1157L19.4148 13.1657L21.9211 11.3407C22.0295 11.2642 22.1106 11.1549 22.1522 11.0289C22.1938 10.9029 22.1939 10.7668 22.1523 10.6407V10.6407ZM18.3148 12.422C18.2075 12.4995 18.1274 12.6089 18.0859 12.7345C18.0443 12.8602 18.0435 12.9958 18.0836 13.122L18.5898 14.672L17.2711 13.7095C17.1636 13.6323 17.0347 13.5907 16.9023 13.5907C16.77 13.5907 16.641 13.6323 16.5336 13.7095L15.2148 14.672L15.7211 13.122C15.7611 12.9958 15.7603 12.8602 15.7188 12.7345C15.6773 12.6089 15.5972 12.4995 15.4898 12.422L14.1711 11.4595H15.8023C15.9343 11.4603 16.0631 11.4188 16.17 11.3413C16.2768 11.2637 16.356 11.154 16.3961 11.0282L16.9023 9.47824L17.4086 11.0282C17.4487 11.154 17.5279 11.2637 17.6347 11.3413C17.7415 11.4188 17.8703 11.4603 18.0023 11.4595H19.6336L18.3148 12.422Z" fill="white"/>
<path d="M16.9023 4.19699C14.7686 4.1964 12.7172 5.02008 11.1763 6.49605C9.63549 7.97202 8.72437 9.98617 8.63323 12.1179C8.54209 14.2497 9.27797 16.3342 10.6872 17.9363C12.0965 19.5384 14.0701 20.5342 16.1961 20.7157C16.4336 20.7345 16.6648 20.747 16.9023 20.747C17.1148 20.747 17.3336 20.7345 17.5461 20.7157H17.6086V20.7095C19.7338 20.528 21.7067 19.5326 23.1153 17.931C24.524 16.3295 25.2596 14.2457 25.1685 12.1148C25.0773 9.98385 24.1665 7.97048 22.6262 6.49509C21.0859 5.0197 19.0352 4.19637 16.9023 4.19699V4.19699ZM23.0336 15.897C23.0319 15.897 23.0303 15.8976 23.0292 15.8988C23.028 15.9 23.0273 15.9016 23.0273 15.9032C22.4683 16.9052 21.6713 17.7542 20.7067 18.3755C19.7422 18.9967 18.6395 19.3711 17.4961 19.4657L17.4898 19.472H17.4836C17.0928 19.5105 16.699 19.5084 16.3086 19.4657C14.7978 19.337 13.3692 18.7227 12.2365 17.7148C11.1038 16.7068 10.3277 15.3593 10.0243 13.8736C9.72096 12.388 9.90658 10.8441 10.5534 9.47274C11.2003 8.10137 12.2736 6.97619 13.613 6.26543C14.9524 5.55466 16.4858 5.2965 17.9841 5.52953C19.4823 5.76255 20.8649 6.47425 21.9252 7.55823C22.9854 8.64221 23.6663 10.0402 23.8661 11.5433C24.0659 13.0463 23.7738 14.5737 23.0336 15.897V15.897Z" fill="white"/>
<path d="M33.7023 30.7407L31.3523 27.097C29.6711 24.5032 27.9919 21.9053 26.3148 19.3032C26.4461 19.2532 26.5961 19.197 26.7461 19.147C27.0848 19.0792 27.4067 18.9448 27.6932 18.7517C27.9796 18.5586 28.2249 18.3106 28.4148 18.022C28.521 17.6957 28.5619 17.3517 28.5351 17.0096C28.5083 16.6675 28.4143 16.334 28.2586 16.0282C28.1117 15.7084 28.0329 15.3614 28.0273 15.0095C28.1821 14.7087 28.397 14.4428 28.6586 14.2282C28.9368 14.0176 29.1706 13.7539 29.3465 13.4525C29.5224 13.1511 29.637 12.8179 29.6836 12.472C29.6377 12.1268 29.5234 11.7942 29.3474 11.4937C29.1714 11.1933 28.9372 10.9309 28.6586 10.722C28.3979 10.504 28.1833 10.2363 28.0273 9.93449C28.0329 9.58255 28.1117 9.23561 28.2586 8.91574C28.4142 8.61106 28.5081 8.27865 28.5349 7.93758C28.5617 7.59651 28.5209 7.2535 28.4148 6.92824C28.2244 6.64017 27.9789 6.39251 27.6926 6.19946C27.4062 6.00642 27.0846 5.87177 26.7461 5.80324C26.4095 5.71809 26.093 5.56729 25.8148 5.35949C25.6765 5.04144 25.6001 4.69992 25.5898 4.35324C25.5992 4.0088 25.5406 3.66588 25.4173 3.34413C25.2939 3.02239 25.1083 2.72814 24.8711 2.47824C24.2737 2.12657 23.5615 2.02546 22.8898 2.19699C22.5497 2.26721 22.1987 2.26721 21.8586 2.19699C21.5968 1.97769 21.3821 1.70769 21.2273 1.40324C21.0852 1.0843 20.881 0.796818 20.6267 0.557538C20.3724 0.318258 20.0731 0.13196 19.7461 0.00949123C19.4075 -0.0196203 19.0664 0.0183944 18.7425 0.121355C18.4186 0.224317 18.1182 0.390199 17.8586 0.609491C17.5747 0.825859 17.2491 0.981194 16.9023 1.06574C16.5555 0.981194 16.23 0.825859 15.9461 0.609491C15.6874 0.390681 15.388 0.225055 15.0652 0.122098C14.7424 0.0191405 14.4025 -0.0191255 14.0648 0.00949123C13.7365 0.130883 13.4357 0.316725 13.1803 0.556082C12.9248 0.795439 12.7198 1.08348 12.5773 1.40324C12.4224 1.7058 12.2101 1.97537 11.9523 2.19699C11.6101 2.26711 11.2571 2.26711 10.9148 2.19699C10.2452 2.02538 9.53491 2.12654 8.93983 2.47824C8.69994 2.72783 8.51225 3.02278 8.38776 3.34581C8.26327 3.66884 8.20448 4.01346 8.21483 4.35949C8.20845 4.70532 8.12968 5.04597 7.98358 5.35949C7.71109 5.56764 7.39818 5.71665 7.06483 5.79699C6.37962 5.93555 5.77728 6.3401 5.38983 6.92199C5.28363 7.24829 5.24277 7.59232 5.26958 7.93441C5.29639 8.27651 5.39035 8.60997 5.54608 8.91574C5.69299 9.23561 5.77174 9.58255 5.77733 9.93449C5.62133 10.2363 5.40673 10.504 5.14608 10.722C4.86746 10.9309 4.63329 11.1933 4.45729 11.4937C4.2813 11.7942 4.167 12.1268 4.12108 12.472C4.16768 12.8179 4.28224 13.1511 4.45815 13.4525C4.63407 13.7539 4.86786 14.0176 5.14608 14.2282C5.40768 14.4428 5.62252 14.7087 5.77733 15.0095C5.77174 15.3614 5.69299 15.7084 5.54608 16.0282C5.39046 16.3329 5.29655 16.6653 5.26974 17.0064C5.24292 17.3475 5.28374 17.6905 5.38983 18.0157C5.57879 18.3052 5.8238 18.5538 6.11041 18.747C6.39701 18.9403 6.71941 19.0741 7.05858 19.1407C7.20233 19.197 7.35233 19.247 7.48983 19.3032C5.80858 21.9032 4.12942 24.5012 2.45233 27.097L0.102332 30.7407C0.0345461 30.8428 -0.0010887 30.9629 2.53454e-05 31.0855C0.00113939 31.208 0.0389513 31.3274 0.108582 31.4282C0.176485 31.5291 0.272523 31.6077 0.384757 31.6544C0.49699 31.701 0.620466 31.7137 0.739832 31.6907L5.00858 30.897L6.04608 35.122C6.07621 35.24 6.14017 35.3467 6.23012 35.4289C6.32006 35.511 6.43206 35.5651 6.55233 35.5845C6.58521 35.5917 6.61869 35.5959 6.65233 35.597C6.75707 35.5977 6.86026 35.5717 6.95213 35.5213C7.04399 35.471 7.12151 35.3981 7.17733 35.3095L13.9148 24.8782C13.9648 24.8907 14.0086 24.922 14.0586 24.9345C14.161 24.9589 14.2658 24.9715 14.3711 24.972C14.9448 24.9088 15.4899 24.6881 15.9461 24.3345C16.23 24.1181 16.5555 23.9628 16.9023 23.8782C17.2491 23.9628 17.5747 24.1181 17.8586 24.3345C18.1184 24.5555 18.4198 24.7224 18.745 24.8255C19.0701 24.9285 19.4126 24.9656 19.7523 24.9345C19.8023 24.922 19.8461 24.8907 19.8898 24.8782L26.6273 35.3095C26.6832 35.3981 26.7607 35.471 26.8525 35.5213C26.9444 35.5717 27.0476 35.5977 27.1523 35.597C27.186 35.5959 27.2195 35.5917 27.2523 35.5845C27.3726 35.5651 27.4846 35.511 27.5745 35.4289C27.6645 35.3467 27.7285 35.24 27.7586 35.122L28.7961 30.897L33.0648 31.6907C33.1842 31.713 33.3074 31.7001 33.4195 31.6535C33.5316 31.6068 33.6277 31.5286 33.6961 31.4282C33.7657 31.3274 33.8035 31.208 33.8046 31.0855C33.8058 30.9629 33.7701 30.8428 33.7023 30.7407ZM6.91483 33.4095L6.08358 30.0282C6.04624 29.8731 5.95099 29.7382 5.81736 29.651C5.68373 29.5639 5.52183 29.5311 5.36483 29.5595L1.93983 30.197L3.50233 27.7782C5.06483 25.3532 6.6315 22.9282 8.20233 20.5032C8.20913 20.532 8.21331 20.5613 8.21483 20.5907C8.20542 20.9352 8.26406 21.2781 8.3874 21.5999C8.51073 21.9216 8.69634 22.2158 8.93358 22.4657C9.53107 22.8171 10.2432 22.9182 10.9148 22.747C11.255 22.6768 11.6059 22.6768 11.9461 22.747C12.2094 22.9648 12.4243 23.2352 12.5773 23.5407C12.6961 23.722 12.8148 23.9032 12.9398 24.0782L6.91483 33.4095ZM19.6523 23.5907C19.6018 23.6481 19.5372 23.6912 19.4648 23.7157C19.2898 23.7532 18.8273 23.472 18.5273 23.2782C18.0574 22.9133 17.4943 22.6881 16.9023 22.6282C16.3104 22.6881 15.7473 22.9133 15.2773 23.2782C14.9773 23.472 14.5148 23.7595 14.3461 23.722C14.2695 23.6927 14.2009 23.6455 14.1461 23.5845C13.9525 23.3679 13.7828 23.1311 13.6398 22.8782C13.3812 22.3624 12.9855 21.9277 12.4961 21.622C12.212 21.4927 11.9018 21.4306 11.5898 21.4407C11.318 21.446 11.0467 21.4669 10.7773 21.5032C10.3898 21.547 9.86483 21.6095 9.71483 21.4907C9.56483 21.372 9.50233 20.8407 9.45858 20.4532C9.45097 19.868 9.27995 19.2965 8.96483 18.8032C8.9151 18.7408 8.85849 18.6842 8.79608 18.6345C8.77223 18.6143 8.74719 18.5955 8.72108 18.5782L8.71483 18.572H8.70858C8.33493 18.2987 7.91601 18.0935 7.47108 17.9657C7.10233 17.8345 6.60233 17.6595 6.51483 17.472C6.42733 17.297 6.60233 16.8032 6.72733 16.4407C6.97769 15.9092 7.07094 15.3172 6.99608 14.7345C6.81254 14.1871 6.47644 13.7035 6.02733 13.3407C5.75233 13.0657 5.37108 12.6845 5.37108 12.472C5.37108 12.2595 5.75233 11.8782 6.02733 11.6032C6.47644 11.2404 6.81254 10.7569 6.99608 10.2095C7.07094 9.62675 6.97769 9.03476 6.72733 8.50324C6.60233 8.14074 6.42733 7.64699 6.51483 7.46574C6.60233 7.28449 7.10858 7.10949 7.47733 6.97824C8.04074 6.84577 8.55462 6.55522 8.95858 6.14074C9.27836 5.65161 9.45183 5.08134 9.45858 4.49699C9.50233 4.10949 9.55858 3.58449 9.71483 3.45949C9.87108 3.33449 10.3898 3.39699 10.7773 3.44074C11.3501 3.56275 11.9456 3.52161 12.4961 3.32199C12.987 3.01802 13.3831 2.58291 13.6398 2.06574C13.8461 1.72824 14.1336 1.27199 14.3398 1.22824C14.5148 1.18449 14.9773 1.47824 15.2773 1.66574C15.7473 2.03064 16.3104 2.25589 16.9023 2.31574C17.4943 2.25589 18.0574 2.03064 18.5273 1.66574C18.8273 1.47824 19.2836 1.19074 19.4648 1.22824C19.6711 1.27199 19.9586 1.72824 20.1648 2.06574C20.4216 2.58291 20.8177 3.01802 21.3086 3.32199C21.8591 3.52161 22.4546 3.56275 23.0273 3.44074C23.4148 3.39699 23.9398 3.33449 24.0898 3.45324C24.2398 3.57199 24.3023 4.10324 24.3461 4.49074C24.3537 5.07601 24.5247 5.6475 24.8398 6.14074C25.2498 6.5552 25.767 6.84735 26.3336 6.98449C26.7023 7.10949 27.2023 7.28449 27.2898 7.47199C27.3773 7.64699 27.2023 8.14074 27.0773 8.50324C26.827 9.03476 26.7337 9.62675 26.8086 10.2095C26.9921 10.7569 27.3282 11.2404 27.7773 11.6032C28.0523 11.8782 28.4336 12.2595 28.4336 12.472C28.4336 12.6845 28.0523 13.0657 27.7773 13.3407C27.3282 13.7035 26.9921 14.1871 26.8086 14.7345C26.7337 15.3172 26.827 15.9092 27.0773 16.4407C27.2023 16.8032 27.3773 17.297 27.2898 17.4782C27.2023 17.6595 26.6961 17.8407 26.3336 17.9657C25.8656 18.0936 25.4264 18.31 25.0398 18.6032C24.9705 18.6652 24.9058 18.732 24.8461 18.8032C24.5263 19.2924 24.3528 19.8626 24.3461 20.447C24.3023 20.8345 24.2461 21.3595 24.0898 21.4845C23.9336 21.6095 23.4148 21.547 23.0273 21.5032C22.4548 21.3781 21.8585 21.4193 21.3086 21.622C20.8192 21.9277 20.4235 22.3624 20.1648 22.8782C20.0204 23.1337 19.8485 23.3726 19.6523 23.5907ZM28.4398 29.5595C28.2828 29.5311 28.1209 29.5639 27.9873 29.651C27.8537 29.7382 27.7584 29.8731 27.7211 30.0282L26.8898 33.4095L20.8648 24.0782C20.9898 23.9032 21.1086 23.722 21.2273 23.5407C21.3805 23.237 21.593 22.9671 21.8523 22.747C22.1946 22.6769 22.5476 22.6769 22.8898 22.747C23.5594 22.9186 24.2698 22.8174 24.8648 22.4657C25.1042 22.217 25.2915 21.9231 25.416 21.6012C25.5405 21.2793 25.5996 20.9358 25.5898 20.5907C25.5909 20.5612 25.5951 20.5319 25.6023 20.5032C27.1711 22.9282 28.7377 25.3532 30.3023 27.7782L31.8648 30.197L28.4398 29.5595Z" fill="white"/>
</svg>
