<svg width="23" height="23" viewBox="0 0 23 23" fill="none" xmlns="http://www.w3.org/2000/svg">
<path d="M-nan -nanL4.89657 1H19.5948C19.6315 0.999978 19.6668 1.01432 19.6932 1.03999C19.7196 1.06566 19.7351 1.10066 19.7364 1.13759C19.7884 2.38087 19.9736 11.7743 13.9755 14.9894C13.6258 15.1768 13.3883 15.5313 13.3883 15.928V18C13.3883 18.5523 12.9406 19 12.3883 19H12.147C11.5947 19 11.147 18.5523 11.147 18V15.9735C11.147 15.554 10.888 15.1751 10.5277 14.9602C8.95277 14.0206 4.90724 10.685 4.75008 1.15233C4.74943 1.13257 4.75273 1.11287 4.7598 1.09441C4.76687 1.07595 4.77755 1.05911 4.79122 1.0449C4.80489 1.03069 4.82126 1.01939 4.83936 1.01167C4.85746 1.00396 4.87692 0.999989 4.89657 1L-nan -nanL-nan -nanZ" stroke="white" stroke-width="1.6"/>
<path d="M19.5948 2.49994H20.6758C20.85 2.49994 21.0225 2.5425 21.1834 2.6252C21.3443 2.70789 21.4905 2.82909 21.6135 2.98184C21.7365 3.1346 21.8339 3.31591 21.9003 3.51538C21.9666 3.71486 22.0005 3.92858 22 4.1443V5.99711C22.0006 6.53527 21.8941 7.06532 21.6899 7.54036C21.4856 8.01541 21.19 8.42082 20.8292 8.72073L17.5 11.4999" stroke="white" stroke-width="1.6"/>
<path d="M4.44614 2.49994H2.86534C2.61994 2.49994 2.37695 2.54521 2.15029 2.63317C1.92363 2.72112 1.71777 2.85003 1.54449 3.0125C1.3712 3.17498 1.23391 3.36782 1.14048 3.57999C1.04705 3.79216 0.999314 4.01948 1.00001 4.24893V6.21962C0.999174 6.79202 1.14923 7.35579 1.43689 7.86107C1.72456 8.36634 2.14098 8.79755 2.6493 9.11654L7.75 12.2499" stroke="white" stroke-width="1.6"/>
<path d="M15 18.9999H9.5C8.94772 18.9999 8.5 19.4477 8.5 19.9999V20.9999C8.5 21.5522 8.94772 21.9999 9.5 21.9999H15C15.5523 21.9999 16 21.5522 16 20.9999V19.9999C16 19.4477 15.5523 18.9999 15 18.9999Z" stroke="white" stroke-width="1.6"/>
<path d="M12.2878 4.00831C12.3111 4.01902 12.3242 4.04289 12.3361 4.06558L13.4144 6.12094C13.4193 6.13457 13.4286 6.14638 13.4408 6.15478C13.453 6.16318 13.4676 6.16776 13.4826 6.16789L15.9184 6.50597C15.936 6.50716 15.9529 6.51344 15.9667 6.52398C15.9805 6.53452 15.9907 6.54884 15.996 6.56507C16.0013 6.5813 16.0013 6.59868 15.9962 6.61494C15.991 6.6312 15.9809 6.64559 15.9672 6.65622L14.189 8.27616C14.1772 8.28582 14.1684 8.29828 14.1632 8.31229C14.1581 8.32631 14.1569 8.34138 14.1597 8.35599L14.5787 10.6474C14.5812 10.6634 14.5792 10.6798 14.5728 10.6948C14.5664 10.7098 14.5558 10.7229 14.5423 10.7325C14.5288 10.7422 14.5128 10.7481 14.496 10.7497C14.4792 10.7512 14.4623 10.7483 14.4472 10.7413L12.2597 9.65193C12.2347 9.64251 12.2069 9.64251 12.1818 9.65193L9.99437 10.7413C9.97919 10.7483 9.96231 10.7512 9.94554 10.7497C9.92878 10.7481 9.91277 10.7422 9.89924 10.7325C9.88571 10.7229 9.87517 10.7098 9.86875 10.6948C9.86234 10.6798 9.86029 10.6634 9.86283 10.6474L10.2839 8.39696C10.289 8.36982 10.3019 8.34368 10.3019 8.31607V8.31607V8.31607C10.3019 8.28846 10.2812 8.26663 10.2609 8.24792L8.53284 6.65622C8.51908 6.64559 8.50896 6.6312 8.50382 6.61494C8.49867 6.59868 8.49873 6.5813 8.50399 6.56507C8.50925 6.54884 8.51947 6.53452 8.53331 6.52398C8.54715 6.51344 8.56396 6.50716 8.58156 6.50597L11.0174 6.16789C11.0324 6.16776 11.047 6.16318 11.0592 6.15478C11.0714 6.14638 11.0806 6.13457 11.0856 6.12094L12.1639 4.06558C12.1758 4.04289 12.1889 4.01902 12.2122 4.00831V4.00831C12.224 4.00288 12.2369 4.00006 12.25 4.00006C12.2631 4.00006 12.276 4.00288 12.2878 4.00831V4.00831Z" stroke="white" stroke-width="1.6"/>
</svg>
