<svg width="65" height="67" viewBox="0 0 65 67" fill="none" xmlns="http://www.w3.org/2000/svg">
<path d="M32.5022 36.2459C42.4211 36.2459 50.4634 28.1312 50.4634 18.123C50.4634 8.11469 42.4211 0 32.5022 0C22.5832 0 14.541 8.11469 14.541 18.123C14.5518 28.1268 22.5876 36.2349 32.5 36.2459H32.5022ZM32.5022 5.4918C39.4167 5.4918 45.0206 11.1462 45.0206 18.123C45.0206 25.0997 39.4167 30.7541 32.5022 30.7541C25.5877 30.7541 19.9838 25.0997 19.9838 18.123C19.9925 11.1506 25.592 5.50059 32.5022 5.4918ZM64.9369 63.6698C61.5536 48.5036 48.3189 37.3443 32.5 37.3443C16.6811 37.3443 3.44638 48.5036 0.104502 63.4457L0.0631365 63.6698C0.0239484 63.8455 0 64.0476 0 64.2541C0 65.7698 1.21919 67 2.7214 67C4.01896 67 5.10534 66.0818 5.37748 64.856L5.38183 64.8384C8.21426 52.1633 19.2784 42.8361 32.5022 42.8361C45.726 42.8361 56.7879 52.1611 59.5855 64.6495L59.6203 64.8362C59.8947 66.0796 60.9767 66.9978 62.2743 66.9978C62.4811 66.9978 62.6814 66.9736 62.8751 66.9297L62.8577 66.9341C64.0921 66.6595 65 65.5655 65 64.2563C65 64.0476 64.9761 63.8455 64.9325 63.65L64.9369 63.6676V63.6698Z" fill="#FF0000"/>
</svg>
