<svg width="25" height="25" viewBox="0 0 25 25" fill="none" xmlns="http://www.w3.org/2000/svg">
<path d="M12.5683 5.9634C9.09436 5.9634 6.29223 8.76553 6.29223 12.2395C6.29223 15.7135 9.09436 18.5156 12.5683 18.5156C16.0423 18.5156 18.8445 15.7135 18.8445 12.2395C18.8445 8.76553 16.0423 5.9634 12.5683 5.9634ZM12.5683 16.3198C10.3234 16.3198 8.48805 14.49 8.48805 12.2395C8.48805 9.98908 10.3179 8.15923 12.5683 8.15923C14.8188 8.15923 16.6486 9.98908 16.6486 12.2395C16.6486 14.49 14.8133 16.3198 12.5683 16.3198V16.3198ZM20.5651 5.70668C20.5651 6.52055 19.9096 7.17056 19.1012 7.17056C18.2873 7.17056 17.6373 6.51509 17.6373 5.70668C17.6373 4.89827 18.2928 4.2428 19.1012 4.2428C19.9096 4.2428 20.5651 4.89827 20.5651 5.70668ZM24.7218 7.19241C24.629 5.23146 24.1811 3.49447 22.7445 2.06336C21.3134 0.632254 19.5764 0.184351 17.6155 0.0860303C15.5944 -0.0286768 9.5368 -0.0286768 7.51577 0.0860303C5.56029 0.178888 3.8233 0.626792 2.38673 2.0579C0.950157 3.48901 0.507715 5.226 0.409395 7.18695C0.294687 9.20798 0.294687 15.2656 0.409395 17.2866C0.502253 19.2476 0.950157 20.9846 2.38673 22.4157C3.8233 23.8468 5.55483 24.2947 7.51577 24.393C9.5368 24.5077 15.5944 24.5077 17.6155 24.393C19.5764 24.3002 21.3134 23.8522 22.7445 22.4157C24.1756 20.9846 24.6235 19.2476 24.7218 17.2866C24.8365 15.2656 24.8365 9.21344 24.7218 7.19241V7.19241ZM22.1109 19.4551C21.6848 20.5257 20.86 21.3505 19.784 21.7821C18.1726 22.4211 14.349 22.2737 12.5683 22.2737C10.7877 22.2737 6.95862 22.4157 5.35272 21.7821C4.28212 21.356 3.45733 20.5312 3.02581 19.4551C2.38673 17.8438 2.53421 14.0202 2.53421 12.2395C2.53421 10.4588 2.39219 6.6298 3.02581 5.0239C3.45186 3.9533 4.27666 3.1285 5.35272 2.69698C6.96409 2.0579 10.7877 2.20538 12.5683 2.20538C14.349 2.20538 18.1781 2.06336 19.784 2.69698C20.8546 3.12304 21.6794 3.94784 22.1109 5.0239C22.75 6.63526 22.6025 10.4588 22.6025 12.2395C22.6025 14.0202 22.75 17.8492 22.1109 19.4551Z" fill="white"/>
</svg>
