<svg width="25" height="25" viewBox="0 0 25 25" fill="none" xmlns="http://www.w3.org/2000/svg">
<path d="M21.8563 0H2.62275C1.17478 0 0 1.17478 0 2.62275V21.8563C0 23.3043 1.17478 24.479 2.62275 24.479H21.8563C23.3043 24.479 24.479 23.3043 24.479 21.8563V2.62275C24.479 1.17478 23.3043 0 21.8563 0ZM19.1844 8.67695C19.1953 8.82994 19.1953 8.9884 19.1953 9.14139C19.1953 13.8787 15.589 19.3373 8.99933 19.3373C6.96669 19.3373 5.08159 18.7472 3.49701 17.7309C3.7866 17.7637 4.06527 17.7746 4.36033 17.7746C6.0378 17.7746 7.57867 17.2064 8.80808 16.2447C7.23443 16.2119 5.91213 15.1792 5.45861 13.7585C6.01048 13.8405 6.50771 13.8405 7.07597 13.693C5.43675 13.3597 4.20734 11.9171 4.20734 10.1741V10.1304C4.68271 10.3981 5.24004 10.5621 5.8247 10.5839C5.33317 10.257 4.93022 9.8134 4.65182 9.29283C4.37342 8.77226 4.22823 8.19086 4.22919 7.60052C4.22919 6.93391 4.40404 6.32193 4.71549 5.79192C6.48039 7.96662 9.13046 9.38728 12.1029 9.54027C11.5948 7.10876 13.4143 5.13623 15.5999 5.13623C16.6326 5.13623 17.5615 5.56789 18.2172 6.26729C19.0259 6.1143 19.8018 5.81377 20.4903 5.40397C20.2225 6.23451 19.6597 6.93391 18.9166 7.3765C19.6379 7.3 20.3373 7.09783 20.982 6.81916C20.4957 7.53496 19.8838 8.16879 19.1844 8.67695Z" fill="white"/>
</svg>
